<svg xmlns="http://www.w3.org/2000/svg" xmlns:xlink="http://www.w3.org/1999/xlink" width="500" zoomAndPan="magnify" viewBox="0 0 375 374.999991" height="500" preserveAspectRatio="xMidYMid meet" version="1.0"><defs><g/></defs><path fill="#ffa31a" d="M 0 187.5 C 0 190.570312 0.0742188 193.636719 0.226562 196.699219 C 0.375 199.765625 0.601562 202.824219 0.902344 205.878906 C 1.203125 208.933594 1.578125 211.976562 2.03125 215.011719 C 2.480469 218.046875 3.003906 221.070312 3.601562 224.078125 C 4.203125 227.089844 4.875 230.082031 5.621094 233.058594 C 6.363281 236.035156 7.183594 238.992188 8.074219 241.929688 C 8.964844 244.863281 9.925781 247.777344 10.960938 250.667969 C 11.996094 253.554688 13.097656 256.417969 14.273438 259.253906 C 15.445312 262.089844 16.691406 264.894531 18.003906 267.667969 C 19.3125 270.441406 20.691406 273.179688 22.140625 275.886719 C 23.585938 278.59375 25.097656 281.261719 26.675781 283.894531 C 28.253906 286.527344 29.894531 289.117188 31.597656 291.667969 C 33.304688 294.222656 35.070312 296.730469 36.898438 299.195312 C 38.726562 301.660156 40.613281 304.078125 42.558594 306.449219 C 44.507812 308.820312 46.511719 311.144531 48.570312 313.417969 C 50.632812 315.691406 52.746094 317.914062 54.917969 320.082031 C 57.085938 322.253906 59.308594 324.367188 61.582031 326.429688 C 63.855469 328.488281 66.179688 330.492188 68.550781 332.4375 C 70.921875 334.386719 73.339844 336.273438 75.804688 338.101562 C 78.269531 339.929688 80.777344 341.695312 83.332031 343.402344 C 85.882812 345.105469 88.472656 346.746094 91.105469 348.324219 C 93.738281 349.902344 96.40625 351.414062 99.113281 352.859375 C 101.820312 354.308594 104.558594 355.6875 107.332031 356.996094 C 110.105469 358.308594 112.910156 359.554688 115.746094 360.726562 C 118.582031 361.902344 121.445312 363.003906 124.332031 364.039062 C 127.222656 365.074219 130.136719 366.035156 133.070312 366.925781 C 136.007812 367.816406 138.964844 368.636719 141.941406 369.378906 C 144.917969 370.125 147.910156 370.796875 150.921875 371.398438 C 153.929688 371.996094 156.953125 372.519531 159.988281 372.96875 C 163.023438 373.421875 166.066406 373.796875 169.121094 374.097656 C 172.175781 374.398438 175.234375 374.625 178.300781 374.773438 C 181.363281 374.925781 184.429688 375 187.5 375 C 190.570312 375 193.636719 374.925781 196.699219 374.773438 C 199.765625 374.625 202.824219 374.398438 205.878906 374.097656 C 208.933594 373.796875 211.976562 373.421875 215.011719 372.96875 C 218.046875 372.519531 221.070312 371.996094 224.078125 371.398438 C 227.089844 370.796875 230.082031 370.125 233.058594 369.378906 C 236.035156 368.636719 238.992188 367.816406 241.929688 366.925781 C 244.863281 366.035156 247.777344 365.074219 250.667969 364.039062 C 253.554688 363.003906 256.417969 361.902344 259.253906 360.726562 C 262.089844 359.554688 264.890625 358.308594 267.667969 356.996094 C 270.441406 355.6875 273.179688 354.308594 275.886719 352.859375 C 278.59375 351.414062 281.261719 349.902344 283.894531 348.324219 C 286.527344 346.746094 289.117188 345.105469 291.667969 343.402344 C 294.222656 341.695312 296.730469 339.929688 299.195312 338.101562 C 301.660156 336.273438 304.078125 334.386719 306.449219 332.4375 C 308.820312 330.492188 311.144531 328.488281 313.417969 326.429688 C 315.691406 324.367188 317.914062 322.253906 320.082031 320.082031 C 322.253906 317.914062 324.367188 315.691406 326.429688 313.417969 C 328.488281 311.144531 330.492188 308.820312 332.4375 306.449219 C 334.386719 304.078125 336.273438 301.660156 338.101562 299.195312 C 339.929688 296.730469 341.695312 294.222656 343.402344 291.667969 C 345.105469 289.117188 346.746094 286.527344 348.324219 283.894531 C 349.902344 281.261719 351.414062 278.59375 352.859375 275.886719 C 354.308594 273.179688 355.6875 270.441406 356.996094 267.667969 C 358.308594 264.894531 359.554688 262.089844 360.726562 259.253906 C 361.902344 256.417969 363.003906 253.554688 364.039062 250.667969 C 365.074219 247.777344 366.035156 244.863281 366.925781 241.929688 C 367.816406 238.992188 368.636719 236.035156 369.378906 233.058594 C 370.125 230.082031 370.796875 227.089844 371.398438 224.078125 C 371.996094 221.070312 372.519531 218.046875 372.96875 215.011719 C 373.421875 211.976562 373.796875 208.933594 374.097656 205.878906 C 374.398438 202.824219 374.625 199.765625 374.773438 196.699219 C 374.925781 193.636719 375 190.570312 375 187.5 C 375 184.429688 374.925781 181.363281 374.773438 178.300781 C 374.625 175.234375 374.398438 172.175781 374.097656 169.121094 C 373.796875 166.066406 373.421875 163.023438 372.96875 159.988281 C 372.519531 156.953125 371.996094 153.929688 371.398438 150.921875 C 370.796875 147.910156 370.125 144.917969 369.378906 141.941406 C 368.636719 138.964844 367.816406 136.007812 366.925781 133.070312 C 366.035156 130.136719 365.074219 127.222656 364.039062 124.332031 C 363.003906 121.445312 361.902344 118.582031 360.726562 115.746094 C 359.554688 112.910156 358.308594 110.109375 356.996094 107.332031 C 355.6875 104.558594 354.308594 101.820312 352.859375 99.113281 C 351.414062 96.40625 349.902344 93.738281 348.324219 91.105469 C 346.746094 88.472656 345.105469 85.882812 343.402344 83.332031 C 341.695312 80.777344 339.929688 78.269531 338.101562 75.804688 C 336.273438 73.339844 334.386719 70.921875 332.4375 68.550781 C 330.492188 66.179688 328.488281 63.855469 326.429688 61.582031 C 324.367188 59.308594 322.253906 57.085938 320.082031 54.917969 C 317.914062 52.746094 315.691406 50.632812 313.417969 48.570312 C 311.144531 46.511719 308.820312 44.507812 306.449219 42.5625 C 304.078125 40.613281 301.660156 38.726562 299.195312 36.898438 C 296.730469 35.070312 294.222656 33.304688 291.667969 31.597656 C 289.117188 29.894531 286.527344 28.253906 283.894531 26.675781 C 281.261719 25.097656 278.59375 23.585938 275.886719 22.140625 C 273.179688 20.691406 270.441406 19.3125 267.667969 18.003906 C 264.890625 16.691406 262.089844 15.445312 259.253906 14.273438 C 256.417969 13.097656 253.554688 11.996094 250.667969 10.960938 C 247.777344 9.925781 244.863281 8.964844 241.929688 8.074219 C 238.992188 7.183594 236.035156 6.363281 233.058594 5.621094 C 230.082031 4.875 227.089844 4.203125 224.078125 3.601562 C 221.070312 3.003906 218.046875 2.480469 215.011719 2.03125 C 211.976562 1.578125 208.933594 1.203125 205.878906 0.902344 C 202.824219 0.601562 199.765625 0.375 196.699219 0.226562 C 193.636719 0.0742188 190.570312 0 187.5 0 C 184.429688 0 181.363281 0.0742188 178.300781 0.226562 C 175.234375 0.375 172.175781 0.601562 169.121094 0.902344 C 166.066406 1.203125 163.023438 1.578125 159.988281 2.03125 C 156.953125 2.480469 153.929688 3.003906 150.921875 3.601562 C 147.910156 4.203125 144.917969 4.875 141.941406 5.621094 C 138.964844 6.363281 136.007812 7.183594 133.070312 8.074219 C 130.136719 8.964844 127.222656 9.925781 124.332031 10.960938 C 121.445312 11.996094 118.582031 13.097656 115.746094 14.273438 C 112.910156 15.445312 110.105469 16.691406 107.332031 18.003906 C 104.558594 19.3125 101.820312 20.691406 99.113281 22.140625 C 96.40625 23.585938 93.738281 25.097656 91.105469 26.675781 C 88.472656 28.253906 85.882812 29.894531 83.332031 31.597656 C 80.777344 33.304688 78.269531 35.070312 75.804688 36.898438 C 73.339844 38.726562 70.921875 40.613281 68.550781 42.5625 C 66.179688 44.507812 63.855469 46.511719 61.582031 48.570312 C 59.308594 50.632812 57.085938 52.746094 54.917969 54.917969 C 52.746094 57.085938 50.632812 59.308594 48.570312 61.582031 C 46.511719 63.855469 44.507812 66.179688 42.558594 68.550781 C 40.613281 70.921875 38.726562 73.339844 36.898438 75.804688 C 35.070312 78.269531 33.304688 80.777344 31.597656 83.332031 C 29.894531 85.882812 28.253906 88.472656 26.675781 91.105469 C 25.097656 93.738281 23.585938 96.40625 22.140625 99.113281 C 20.691406 101.820312 19.3125 104.558594 18.003906 107.332031 C 16.691406 110.109375 15.445312 112.910156 14.273438 115.746094 C 13.097656 118.582031 11.996094 121.445312 10.960938 124.332031 C 9.925781 127.222656 8.964844 130.136719 8.074219 133.070312 C 7.183594 136.007812 6.363281 138.964844 5.621094 141.941406 C 4.875 144.917969 4.203125 147.910156 3.601562 150.921875 C 3.003906 153.929688 2.480469 156.953125 2.03125 159.988281 C 1.578125 163.023438 1.203125 166.066406 0.902344 169.121094 C 0.601562 172.175781 0.375 175.234375 0.226562 178.300781 C 0.0742188 181.363281 0 184.429688 0 187.5 Z M 200.8125 80.4375 L 275.8125 155.4375 C 276.25 155.871094 276.667969 156.328125 277.058594 156.804688 C 277.453125 157.277344 277.820312 157.773438 278.167969 158.285156 C 278.511719 158.796875 278.828125 159.324219 279.121094 159.867188 C 279.414062 160.414062 279.679688 160.96875 279.917969 161.539062 C 280.152344 162.109375 280.363281 162.6875 280.542969 163.28125 C 280.722656 163.871094 280.875 164.46875 280.996094 165.074219 C 281.117188 165.679688 281.207031 166.289062 281.265625 166.902344 C 281.328125 167.515625 281.359375 168.132812 281.359375 168.75 C 281.359375 169.367188 281.328125 169.984375 281.265625 170.597656 C 281.207031 171.210938 281.117188 171.820312 280.996094 172.425781 C 280.875 173.03125 280.722656 173.628906 280.542969 174.21875 C 280.363281 174.8125 280.152344 175.390625 279.917969 175.960938 C 279.679688 176.53125 279.414062 177.085938 279.121094 177.632812 C 278.828125 178.175781 278.511719 178.703125 278.167969 179.214844 C 277.820312 179.726562 277.453125 180.222656 277.058594 180.695312 C 276.667969 181.171875 276.25 181.628906 275.8125 182.0625 C 275.378906 182.5 274.921875 182.917969 274.445312 183.308594 C 273.972656 183.703125 273.476562 184.070312 272.964844 184.417969 C 272.453125 184.761719 271.925781 185.078125 271.382812 185.371094 C 270.835938 185.664062 270.28125 185.929688 269.710938 186.167969 C 269.140625 186.402344 268.5625 186.613281 267.96875 186.792969 C 267.378906 186.972656 266.78125 187.125 266.175781 187.246094 C 265.570312 187.367188 264.960938 187.457031 264.347656 187.515625 C 263.734375 187.578125 263.117188 187.609375 262.5 187.609375 C 261.882812 187.609375 261.265625 187.578125 260.652344 187.515625 C 260.039062 187.457031 259.429688 187.367188 258.824219 187.246094 C 258.21875 187.125 257.621094 186.972656 257.03125 186.792969 C 256.4375 186.613281 255.859375 186.402344 255.289062 186.167969 C 254.71875 185.929688 254.164062 185.664062 253.617188 185.371094 C 253.074219 185.078125 252.546875 184.761719 252.035156 184.417969 C 251.523438 184.070312 251.027344 183.703125 250.554688 183.308594 C 250.078125 182.917969 249.621094 182.5 249.1875 182.0625 L 206.25 138.9375 L 206.25 281.25 C 206.25 281.863281 206.21875 282.476562 206.160156 283.085938 C 206.097656 283.699219 206.007812 284.304688 205.890625 284.90625 C 205.769531 285.511719 205.621094 286.105469 205.441406 286.691406 C 205.265625 287.28125 205.058594 287.859375 204.824219 288.425781 C 204.585938 288.992188 204.324219 289.546875 204.035156 290.089844 C 203.746094 290.628906 203.429688 291.15625 203.089844 291.667969 C 202.75 292.175781 202.382812 292.671875 201.992188 293.144531 C 201.605469 293.621094 201.191406 294.074219 200.757812 294.507812 C 200.324219 294.941406 199.871094 295.355469 199.394531 295.742188 C 198.921875 296.132812 198.425781 296.5 197.917969 296.839844 C 197.40625 297.179688 196.878906 297.496094 196.339844 297.785156 C 195.796875 298.074219 195.242188 298.335938 194.675781 298.574219 C 194.109375 298.808594 193.53125 299.015625 192.941406 299.191406 C 192.355469 299.371094 191.761719 299.519531 191.15625 299.640625 C 190.554688 299.757812 189.949219 299.847656 189.335938 299.910156 C 188.726562 299.96875 188.113281 300 187.5 300 C 186.886719 300 186.273438 299.96875 185.664062 299.910156 C 185.050781 299.847656 184.445312 299.757812 183.84375 299.640625 C 183.238281 299.519531 182.644531 299.371094 182.058594 299.191406 C 181.46875 299.015625 180.890625 298.808594 180.324219 298.574219 C 179.757812 298.335938 179.203125 298.074219 178.660156 297.785156 C 178.121094 297.496094 177.59375 297.179688 177.082031 296.839844 C 176.574219 296.5 176.078125 296.132812 175.605469 295.742188 C 175.128906 295.355469 174.675781 294.941406 174.242188 294.507812 C 173.808594 294.074219 173.394531 293.621094 173.007812 293.144531 C 172.617188 292.671875 172.25 292.175781 171.910156 291.667969 C 171.570312 291.15625 171.253906 290.628906 170.964844 290.089844 C 170.675781 289.546875 170.414062 288.992188 170.175781 288.425781 C 169.941406 287.859375 169.734375 287.28125 169.558594 286.691406 C 169.378906 286.105469 169.230469 285.511719 169.109375 284.90625 C 168.992188 284.304688 168.902344 283.699219 168.839844 283.085938 C 168.78125 282.476562 168.75 281.863281 168.75 281.25 L 168.75 138.9375 L 125.8125 182.0625 C 125.375 182.5 124.921875 182.910156 124.445312 183.304688 C 123.96875 183.695312 123.472656 184.0625 122.960938 184.402344 C 122.445312 184.746094 121.917969 185.0625 121.375 185.355469 C 120.832031 185.644531 120.273438 185.90625 119.703125 186.144531 C 119.136719 186.378906 118.554688 186.585938 117.964844 186.765625 C 117.375 186.945312 116.777344 187.09375 116.171875 187.214844 C 115.566406 187.335938 114.960938 187.425781 114.34375 187.484375 C 113.730469 187.546875 113.117188 187.578125 112.5 187.578125 C 111.882812 187.578125 111.269531 187.546875 110.65625 187.484375 C 110.042969 187.425781 109.433594 187.335938 108.828125 187.214844 C 108.222656 187.09375 107.625 186.945312 107.035156 186.765625 C 106.445312 186.585938 105.863281 186.378906 105.296875 186.144531 C 104.726562 185.90625 104.167969 185.644531 103.625 185.355469 C 103.082031 185.0625 102.554688 184.746094 102.039062 184.402344 C 101.527344 184.0625 101.03125 183.695312 100.554688 183.304688 C 100.078125 182.910156 99.625 182.5 99.1875 182.0625 C 98.75 181.625 98.339844 181.171875 97.945312 180.695312 C 97.554688 180.21875 97.1875 179.722656 96.847656 179.210938 C 96.503906 178.695312 96.1875 178.167969 95.894531 177.625 C 95.605469 177.082031 95.34375 176.523438 95.105469 175.953125 C 94.871094 175.386719 94.664062 174.804688 94.484375 174.214844 C 94.304688 173.625 94.15625 173.027344 94.035156 172.421875 C 93.914062 171.816406 93.824219 171.207031 93.765625 170.59375 C 93.703125 169.980469 93.671875 169.367188 93.671875 168.75 C 93.671875 168.132812 93.703125 167.519531 93.765625 166.90625 C 93.824219 166.289062 93.914062 165.683594 94.035156 165.078125 C 94.15625 164.472656 94.304688 163.875 94.484375 163.285156 C 94.664062 162.695312 94.871094 162.113281 95.105469 161.546875 C 95.34375 160.976562 95.605469 160.417969 95.894531 159.875 C 96.1875 159.332031 96.503906 158.804688 96.847656 158.289062 C 97.1875 157.777344 97.554688 157.28125 97.945312 156.804688 C 98.339844 156.328125 98.75 155.875 99.1875 155.4375 L 174.1875 80.4375 C 175.988281 78.714844 178.050781 77.402344 180.375 76.5 C 182.65625 75.5625 185.03125 75.09375 187.5 75.09375 C 189.96875 75.09375 192.34375 75.5625 194.625 76.5 C 196.949219 77.402344 199.011719 78.714844 200.8125 80.4375 Z M 200.8125 80.4375 " fill-opacity="1" fill-rule="nonzero"/><g fill="#ffa31a" fill-opacity="1"><g transform="translate(93.276474, 223.821885)"><g><path d="M 1.1875 -0.828125 C 1.1875 -1.179688 1.265625 -1.445312 1.421875 -1.625 C 1.585938 -1.800781 1.816406 -1.890625 2.109375 -1.890625 C 2.410156 -1.890625 2.644531 -1.800781 2.8125 -1.625 C 2.988281 -1.445312 3.078125 -1.179688 3.078125 -0.828125 C 3.078125 -0.492188 2.988281 -0.234375 2.8125 -0.046875 C 2.644531 0.140625 2.410156 0.234375 2.109375 0.234375 C 1.847656 0.234375 1.628906 0.148438 1.453125 -0.015625 C 1.273438 -0.179688 1.1875 -0.453125 1.1875 -0.828125 Z M 1.1875 -0.828125 "/></g></g></g></svg>